<?xml version="1.0" encoding="utf-8"?>
<!-- Generator: Adobe Illustrator 24.3.0, SVG Export Plug-In . SVG Version: 6.00 Build 0)  -->
<svg xmlns="http://www.w3.org/2000/svg" xmlns:xlink="http://www.w3.org/1999/xlink" version="1.1" id="Layer_1" width="128px" height="128px" viewBox="0 0 2000 2000">
<g>
	<path d="M1080.51,912.75c-20.23-20.23-48.07-32.88-78.83-33.32c-0.55-0.01-1.1-0.02-1.65-0.02H1000c-0.33,0-0.66,0-0.98,0
		c-31.04,0.26-59.14,12.96-79.52,33.34c-20.6,20.59-33.35,49.07-33.35,80.51c0,31.43,12.75,59.91,33.35,80.5
		c6.03,6.03,12.74,11.39,20,15.96c0,0,0,0,0,0l1.55,30.88l23.95-18.98c0,0,0,0,0,0c11.03,3.56,22.79,5.48,35,5.48
		c12.21,0,23.97-1.92,35-5.48l23.95,18.98l1.55-30.89c7.26-4.56,13.97-9.92,20.01-15.96c20.6-20.59,33.34-49.07,33.34-80.5
		C1113.85,961.82,1101.1,933.34,1080.51,912.75z M1032.15,1041.78l-1.47,1.22l-5.81-2.92l-2.9-1.46l1.93-1.42l1.51-1.11l5.66,2.48
		l3.23,1.42L1032.15,1041.78z M1021.75,1030.88l-6.89,5.08h-29.72l-6.89-5.08l4.22-12.46l2.05-6.04l15.48-45.74l15.49,45.75
		l2.05,6.04L1021.75,1030.88z M1006.07,964.76c5.8-2.39,9.88-8.09,9.88-14.75c0-8.81-7.14-15.95-15.95-15.95
		c-8.81,0-15.95,7.14-15.95,15.95c0,6.66,4.08,12.36,9.88,14.75l-15.5,45.79c-1.16-0.41-2.31-0.86-3.43-1.34
		c-11.53-4.87-21.34-13.03-28.27-23.28c-6.93-10.26-10.97-22.6-10.97-35.92c0-8.88,1.8-17.32,5.05-25.01
		c4.88-11.53,13.03-21.35,23.28-28.27c10.26-6.93,22.6-10.97,35.92-10.97c8.88,0,17.32,1.8,25.01,5.05
		c11.53,4.87,21.35,13.02,28.27,23.28c6.92,10.26,10.97,22.6,10.97,35.92c0,8.88-1.8,17.32-5.05,25.01
		c-4.87,11.53-13.02,21.34-23.28,28.27c-4.42,2.99-9.23,5.44-14.35,7.26L1006.07,964.76z M892.51,993.25
		c0-29.69,12.03-56.55,31.49-76.01c8.92-8.92,19.4-16.28,31-21.63c0,0,0,0,0,0c-5.19,4.3-9.76,9.32-13.54,14.92
		c-7.61,11.26-12.06,24.87-12.06,39.48c0,9.74,1.97,19.04,5.55,27.48c5.36,12.68,14.31,23.45,25.58,31.06
		c4.88,3.3,10.21,6.01,15.87,8.01l-4.69,13.85l-17.95,7.86l11.92,9.95l-7.04,20.79l-16.4,14.9c0,0,0,0,0,0
		c-6.61-4.22-12.72-9.14-18.24-14.66C904.53,1049.8,892.51,1022.94,892.51,993.25z M967.31,1095.68
		C967.31,1095.68,967.3,1095.68,967.31,1095.68l-2.7-24.5l7.62-22.52l12.62-6.34h30.31l12.61,6.34l7.62,22.52l0,0l-2.7,24.5
		c-10.31,3.29-21.29,5.06-32.69,5.06C988.6,1100.74,977.61,1098.97,967.31,1095.68z M1053.22,1107.94l-11.18-8.86l-3.06-2.42
		l0.37-3.34l1.75-15.95l10.95,9.95l2.1,1.91l-0.22,4.31L1053.22,1107.94z M1076.01,1069.26c-5.52,5.52-11.64,10.44-18.24,14.66
		l-16.4-14.9l0,0l-7.04-20.78l11.92-9.95l-17.95-7.87l-4.69-13.85c1.31-0.46,2.6-0.97,3.87-1.5c12.68-5.36,23.45-14.31,31.06-25.58
		c7.62-11.27,12.07-24.87,12.06-39.48c0-9.74-1.97-19.04-5.55-27.49c-4.45-10.53-11.39-19.74-20.07-26.92
		c0.01,0,0.02,0.01,0.02,0.01c11.59,5.35,22.07,12.71,31,21.63c19.46,19.46,31.48,46.32,31.48,76.01
		C1107.49,1022.94,1095.47,1049.8,1076.01,1069.26z"/>
</g>
</svg>
